<svg width="129" height="129" viewBox="0 0 129 129" fill="none" xmlns="http://www.w3.org/2000/svg">
<path d="M109 0C120.046 9.98599e-07 129 8.95431 129 20V109C129 120.046 120.046 129 109 129H20C8.95431 129 0 120.046 0 109V20C9.98664e-07 8.95431 8.95431 0 20 0H109ZM64 27.1133C62.2718 27.1133 60.5678 27.5222 59.0273 28.3057L33.2051 41.4482C31.1625 42.4915 29.875 44.5877 29.875 46.8789V79.624C29.8741 81.1977 30.3082 82.7418 31.1299 84.084C31.9515 85.426 33.1285 86.5146 34.5303 87.2295L59.0176 99.6943C60.5593 100.479 62.265 100.889 63.9951 100.889C65.7252 100.889 67.4309 100.479 68.9727 99.6943L93.4648 87.2295C96.3215 85.7718 98.125 82.8317 98.125 79.624V46.8789C98.125 44.5877 96.8424 42.4915 94.7949 41.4482L68.9727 28.3057C67.4322 27.5222 65.7282 27.1133 64 27.1133ZM60.3438 63.8193V92.1631L37.8555 80.707C37.6554 80.6056 37.487 80.4506 37.3691 80.2598C37.2513 80.0688 37.1884 79.8484 37.1875 79.624V52.2412L60.3438 63.8193ZM90.8125 79.624C90.8116 79.8484 90.7487 80.0688 90.6309 80.2598C90.513 80.4506 90.3446 80.6056 90.1445 80.707L67.6562 92.1631V63.8193L90.8125 52.2412V79.624ZM64 34.4258C64.576 34.4258 65.1438 34.5621 65.6572 34.8232L87.2832 45.8311L64 57.4727L40.7168 45.8311L62.3428 34.8232C62.8562 34.5621 63.424 34.4258 64 34.4258Z" fill="#4069D1"/>
</svg>
